<svg width="360" height="43" viewBox="0 0 360 43" fill="none" xmlns="http://www.w3.org/2000/svg">
<g filter="url(#filter0_i_102_15)">
<path d="M58.6463 42.4197C58.1637 42.4197 57.7686 42.2846 57.461 42.0135C57.1534 41.7425 57 41.3943 57 40.969V3.24967C57 2.82414 57.1534 2.47596 57.461 2.20513C57.7686 1.9343 58.1637 1.79892 58.6463 1.79892H78.2047C81.8483 1.79892 84.8343 2.26316 87.1608 3.19164C89.4873 4.12012 91.1995 5.43548 92.2973 7.13767C93.4385 8.83985 94.0095 10.8324 94.0095 13.1147C94.0095 14.5463 93.7019 15.8031 93.0876 16.8866C92.5166 17.9701 91.7922 18.8596 90.9144 19.556C90.08 20.2523 89.2681 20.7746 88.4779 21.1228C90.19 21.8191 91.683 22.9797 92.9559 24.6046C94.2729 26.1905 94.9315 28.0863 94.9315 30.2915C94.9315 32.7287 94.3171 34.8567 93.0876 36.6748C91.858 38.4928 90.0367 39.9053 87.6218 40.9109C85.2069 41.9165 82.266 42.4197 78.7974 42.4197H58.6463ZM67.4707 35.6302H77.5462C79.6977 35.6302 81.3215 35.1079 82.4193 34.0634C83.5172 32.9799 84.0657 31.7033 84.0657 30.2335C84.0657 28.7247 83.4947 27.4671 82.3535 26.4615C81.2557 25.417 79.6535 24.8947 77.5462 24.8947H67.4707V35.6302ZM67.4707 18.2213H76.9535C79.0167 18.2213 80.5538 17.7761 81.5633 16.8866C82.6169 15.9581 83.1437 14.7784 83.1437 13.3468C83.1437 11.9151 82.6169 10.7744 81.5633 9.92302C80.5538 9.03333 79.0167 8.58841 76.9535 8.58841H67.4707V18.2213ZM111.152 43C108.825 43 106.74 42.6129 104.896 41.8394C103.052 41.027 101.581 39.9435 100.484 38.5897C99.3862 37.236 98.8377 35.7272 98.8377 34.0634C98.8377 31.3169 100.089 29.15 102.591 27.5641C105.137 25.9782 108.474 24.8947 112.601 24.3144L121.228 23.2118V22.1673C121.228 20.6585 120.833 19.4979 120.042 18.6855C119.252 17.8731 117.869 17.4669 115.894 17.4669C114.445 17.4669 113.281 17.7181 112.403 18.2213C111.525 18.7245 110.845 19.3819 110.362 20.1943C110.01 20.6975 109.506 20.9487 108.847 20.9487H102.591C102.108 20.9487 101.735 20.8326 101.472 20.6005C101.208 20.3295 101.098 20.0202 101.143 19.672C101.143 19.0146 101.428 18.2404 101.999 17.3508C102.569 16.4613 103.447 15.5908 104.633 14.7395C105.818 13.85 107.333 13.1147 109.177 12.5344C111.021 11.9541 113.281 11.6639 115.96 11.6639C118.725 11.6639 121.096 11.9541 123.072 12.5344C125.047 13.1147 126.628 13.9271 127.813 14.9716C128.998 16.0162 129.876 17.2348 130.447 18.6275C131.017 19.9813 131.303 21.4519 131.303 23.0378V40.969C131.303 41.3943 131.149 41.7425 130.842 42.0135C130.535 42.2846 130.14 42.4197 129.657 42.4197H123.203C122.764 42.4197 122.391 42.2846 122.084 42.0135C121.776 41.7425 121.623 41.3943 121.623 40.969V38.8219C121.052 39.5572 120.283 40.2535 119.318 40.9109C118.352 41.5302 117.188 42.0326 115.828 42.4197C114.511 42.8068 112.952 43 111.152 43ZM113.786 36.9649C115.235 36.9649 116.53 36.6939 117.672 36.1525C118.813 35.6111 119.713 34.7789 120.372 33.6572C121.03 32.5355 121.359 31.123 121.359 29.421V28.4345L115.235 29.305C112.864 29.6531 111.13 30.1754 110.033 30.8718C108.935 31.5681 108.386 32.4195 108.386 33.4251C108.386 34.1604 108.627 34.7987 109.111 35.3401C109.638 35.8814 110.318 36.2876 111.152 36.5587C111.986 36.8297 112.864 36.9649 113.786 36.9649ZM153.501 43C150.296 43 147.464 42.4777 145.006 41.4332C142.591 40.3887 140.681 38.8799 139.277 36.9069C137.872 34.8949 137.103 32.4966 136.972 29.7112C136.928 29.092 136.906 28.3185 136.906 27.39C136.906 26.4226 136.928 25.63 136.972 25.0108C137.103 22.1864 137.849 19.7881 139.211 17.8151C140.615 15.8031 142.548 14.2753 145.006 13.2307C147.464 12.1862 150.296 11.6639 153.501 11.6639C156.443 11.6639 158.945 12.0312 161.008 12.7665C163.071 13.4628 164.762 14.3524 166.079 15.4359C167.396 16.5193 168.362 17.6601 168.976 18.8596C169.635 20.0202 169.986 21.0456 170.03 21.9352C170.074 22.3223 169.92 22.6705 169.569 22.9797C169.261 23.2508 168.889 23.3859 168.45 23.3859H161.403C160.964 23.3859 160.613 23.289 160.35 23.0958C160.13 22.8637 159.91 22.5544 159.691 22.1673C159.077 20.8135 158.286 19.8461 157.32 19.2658C156.354 18.6855 155.147 18.3954 153.698 18.3954C151.723 18.3954 150.164 18.9566 149.023 20.0782C147.882 21.1999 147.266 22.9408 147.179 25.3009C147.135 26.8097 147.135 28.1833 147.179 29.421C147.311 31.8194 147.925 33.5602 149.023 34.6437C150.164 35.7272 151.723 36.2686 153.698 36.2686C155.235 36.2686 156.464 35.9784 157.386 35.3981C158.308 34.8178 159.077 33.8504 159.691 32.4966C159.867 32.1095 160.086 31.8194 160.35 31.6262C160.613 31.394 160.964 31.278 161.403 31.278H168.45C168.889 31.278 169.261 31.433 169.569 31.7422C169.92 32.0133 170.074 32.3416 170.03 32.7287C169.986 33.3862 169.767 34.1604 169.371 35.0499C169.021 35.9395 168.428 36.8488 167.593 37.7773C166.803 38.7058 165.771 39.5762 164.498 40.3887C163.225 41.1622 161.667 41.8005 159.823 42.3036C158.023 42.7679 155.916 43 153.501 43ZM177.147 42.4197C176.665 42.4197 176.269 42.2846 175.962 42.0135C175.654 41.7425 175.501 41.3943 175.501 40.969V2.66937C175.501 2.24385 175.654 1.89566 175.962 1.62483C176.269 1.354 176.665 1.21863 177.147 1.21863H183.601C184.04 1.21863 184.413 1.354 184.72 1.62483C185.028 1.89566 185.181 2.24385 185.181 2.66937V22.2834L195.323 13.2307C195.674 12.9597 195.981 12.7276 196.245 12.5344C196.552 12.3412 197.013 12.2442 197.628 12.2442H205.069C205.508 12.2442 205.859 12.3794 206.123 12.6504C206.386 12.8825 206.518 13.1727 206.518 13.5209C206.518 13.6759 206.474 13.85 206.386 14.0431C206.298 14.2363 206.144 14.3913 205.925 14.5074L193.215 25.7652L207.571 40.2146C207.966 40.5238 208.164 40.8338 208.164 41.143C208.164 41.4912 208.011 41.8005 207.703 42.0715C207.44 42.3036 207.11 42.4197 206.715 42.4197H199.076C198.418 42.4197 197.935 42.3227 197.628 42.1296C197.364 41.9364 197.057 41.7042 196.706 41.4332L185.181 30.0594V40.969C185.181 41.3943 185.028 41.7425 184.72 42.0135C184.413 42.2846 184.04 42.4197 183.601 42.4197H177.147ZM228.34 42.4197C225.619 42.4197 223.292 42.0326 221.36 41.2591C219.428 40.4467 217.958 39.209 216.948 37.5452C215.982 35.8814 215.499 33.7924 215.499 31.278V19.0917H210.362C209.88 19.0917 209.484 18.9566 209.177 18.6855C208.87 18.4145 208.716 18.0663 208.716 17.641V13.695C208.716 13.2696 208.87 12.9215 209.177 12.6504C209.484 12.3794 209.88 12.2442 210.362 12.2442H215.499V2.66937C215.499 2.24385 215.653 1.89566 215.96 1.62483C216.312 1.354 216.707 1.21863 217.145 1.21863H223.599C224.082 1.21863 224.477 1.354 224.784 1.62483C225.092 1.89566 225.245 2.24385 225.245 2.66937V12.2442H233.477C233.916 12.2442 234.289 12.3794 234.596 12.6504C234.904 12.9215 235.057 13.2696 235.057 13.695V17.641C235.057 18.0663 234.904 18.4145 234.596 18.6855C234.289 18.9566 233.916 19.0917 233.477 19.0917H225.245V30.5816C225.245 32.0515 225.531 33.2121 226.101 34.0634C226.716 34.8758 227.77 35.282 229.262 35.282H234.069C234.509 35.282 234.882 35.4172 235.189 35.6882C235.497 35.9593 235.65 36.2876 235.65 36.6748V40.969C235.65 41.3943 235.497 41.7425 235.189 42.0135C234.882 42.2846 234.509 42.4197 234.069 42.4197H228.34ZM241.988 42.4197C241.549 42.4197 241.176 42.2846 240.868 42.0135C240.561 41.7425 240.407 41.3943 240.407 40.969V13.695C240.407 13.2696 240.561 12.9215 240.868 12.6504C241.176 12.3794 241.549 12.2442 241.988 12.2442H248.573C249.056 12.2442 249.452 12.3794 249.758 12.6504C250.066 12.9215 250.219 13.2696 250.219 13.695V40.969C250.219 41.3943 250.066 41.7425 249.758 42.0135C249.452 42.2846 249.056 42.4197 248.573 42.4197H241.988ZM241.79 7.6019C241.352 7.6019 240.978 7.46652 240.671 7.19569C240.364 6.92486 240.21 6.57669 240.21 6.15116V1.50878C240.21 1.08325 240.364 0.735071 240.671 0.464241C240.978 0.154773 241.352 0 241.79 0H248.705C249.188 0 249.583 0.154773 249.89 0.464241C250.242 0.735071 250.417 1.08325 250.417 1.50878V6.15116C250.417 6.57669 250.242 6.92486 249.89 7.19569C249.583 7.46652 249.188 7.6019 248.705 7.6019H241.79ZM272.96 43C269.755 43 266.924 42.4777 264.465 41.4332C262.05 40.3887 260.141 38.8799 258.736 36.9069C257.331 34.8949 256.563 32.4966 256.431 29.7112C256.387 29.092 256.365 28.3185 256.365 27.39C256.365 26.4226 256.387 25.63 256.431 25.0108C256.563 22.1864 257.309 19.7881 258.67 17.8151C260.075 15.8031 262.006 14.2753 264.465 13.2307C266.924 12.1862 269.755 11.6639 272.96 11.6639C275.901 11.6639 278.404 12.0312 280.468 12.7665C282.531 13.4628 284.221 14.3524 285.538 15.4359C286.855 16.5193 287.821 17.6601 288.436 18.8596C289.094 20.0202 289.445 21.0456 289.49 21.9352C289.533 22.3223 289.379 22.6705 289.029 22.9797C288.721 23.2508 288.348 23.3859 287.909 23.3859H280.863C280.423 23.3859 280.072 23.289 279.809 23.0958C279.589 22.8637 279.37 22.5544 279.151 22.1673C278.535 20.8135 277.745 19.8461 276.78 19.2658C275.814 18.6855 274.607 18.3954 273.158 18.3954C271.182 18.3954 269.624 18.9566 268.482 20.0782C267.34 21.1999 266.726 22.9408 266.638 25.3009C266.594 26.8097 266.594 28.1833 266.638 29.421C266.77 31.8194 267.385 33.5602 268.482 34.6437C269.624 35.7272 271.182 36.2686 273.158 36.2686C274.694 36.2686 275.924 35.9784 276.846 35.3981C277.768 34.8178 278.535 33.8504 279.151 32.4966C279.326 32.1095 279.546 31.8194 279.809 31.6262C280.072 31.394 280.423 31.278 280.863 31.278H287.909C288.348 31.278 288.721 31.433 289.029 31.7422C289.379 32.0133 289.533 32.3416 289.49 32.7287C289.445 33.3862 289.226 34.1604 288.831 35.0499C288.479 35.9395 287.887 36.8488 287.053 37.7773C286.263 38.7058 285.231 39.5762 283.958 40.3887C282.684 41.1622 281.126 41.8005 279.282 42.3036C277.482 42.7679 275.374 43 272.96 43ZM296.607 42.4197C296.124 42.4197 295.729 42.2846 295.421 42.0135C295.114 41.7425 294.96 41.3943 294.96 40.969V2.66937C294.96 2.24385 295.114 1.89566 295.421 1.62483C295.729 1.354 296.124 1.21863 296.607 1.21863H303.06C303.5 1.21863 303.872 1.354 304.18 1.62483C304.487 1.89566 304.641 2.24385 304.641 2.66937V22.2834L314.782 13.2307C315.133 12.9597 315.441 12.7276 315.704 12.5344C316.012 12.3412 316.473 12.2442 317.087 12.2442H324.528C324.968 12.2442 325.319 12.3794 325.582 12.6504C325.846 12.8825 325.977 13.1727 325.977 13.5209C325.977 13.6759 325.933 13.85 325.846 14.0431C325.758 14.2363 325.604 14.3913 325.385 14.5074L312.675 25.7652L327.031 40.2146C327.426 40.5238 327.624 40.8338 327.624 41.143C327.624 41.4912 327.47 41.8005 327.163 42.0715C326.899 42.3036 326.57 42.4197 326.175 42.4197H318.536C317.877 42.4197 317.395 42.3227 317.087 42.1296C316.824 41.9364 316.516 41.7042 316.165 41.4332L304.641 30.0594V40.969C304.641 41.3943 304.487 41.7425 304.18 42.0135C303.872 42.2846 303.5 42.4197 303.06 42.4197H296.607ZM344.129 43C341.407 43 339.059 42.729 337.083 42.1876C335.151 41.6073 333.57 40.9109 332.342 40.0985C331.156 39.2861 330.256 38.4737 329.642 37.6613C329.071 36.8099 328.763 36.0945 328.72 35.5142C328.676 35.0889 328.829 34.7407 329.181 34.4696C329.532 34.1986 329.883 34.0634 330.234 34.0634H336.622C336.754 34.0634 336.886 34.0825 337.017 34.1214C337.149 34.1604 337.281 34.2566 337.412 34.4116C337.983 34.7598 338.575 35.166 339.19 35.6302C339.805 36.0555 340.507 36.4235 341.298 36.7328C342.131 37.042 343.163 37.197 344.393 37.197C345.842 37.197 347.07 36.9458 348.081 36.4426C349.09 35.9013 349.595 35.1469 349.595 34.1795C349.595 33.4831 349.353 32.9028 348.871 32.4386C348.431 31.9743 347.575 31.549 346.303 31.1619C345.029 30.7748 343.142 30.3495 340.639 29.8853C338.268 29.421 336.249 28.8018 334.581 28.0283C332.912 27.2548 331.661 26.2874 330.827 25.1268C329.993 23.9273 329.576 22.4964 329.576 20.8326C329.576 19.3238 330.103 17.8731 331.156 16.4804C332.253 15.0877 333.856 13.9462 335.964 13.0566C338.071 12.1282 340.705 11.6639 343.866 11.6639C346.28 11.6639 348.387 11.935 350.188 12.4763C352.032 12.9795 353.568 13.6369 354.798 14.4493C356.026 15.2228 356.948 16.0352 357.563 16.8866C358.222 17.699 358.573 18.4145 358.617 19.0337C358.66 19.4208 358.529 19.7492 358.222 20.0202C357.914 20.2913 357.563 20.4264 357.168 20.4264H351.307C351.087 20.4264 350.89 20.4073 350.715 20.3684C350.539 20.2913 350.385 20.1943 350.254 20.0782C349.727 19.769 349.178 19.4208 348.607 19.0337C348.081 18.6084 347.444 18.2404 346.698 17.9311C345.951 17.6219 344.985 17.4669 343.8 17.4669C342.351 17.4669 341.232 17.757 340.442 18.3373C339.695 18.8787 339.322 19.5751 339.322 20.4264C339.322 20.9678 339.52 21.471 339.915 21.9352C340.31 22.3994 341.122 22.8247 342.351 23.2118C343.58 23.599 345.446 24.0052 347.949 24.4305C350.934 24.8947 353.305 25.5911 355.061 26.5195C356.817 27.448 358.068 28.5315 358.815 29.7692C359.605 30.9687 360 32.2645 360 33.6572C360 35.4752 359.385 37.1001 358.156 38.5317C356.927 39.9244 355.127 41.027 352.756 41.8394C350.429 42.6129 347.554 43 344.129 43Z" fill="#FCA311"/>
</g>
<mask id="path-2-inside-1_102_15" fill="white">
<path d="M27 2H50V42H39L27 2Z"/>
</mask>
<path d="M27 2H50V42H39L27 2Z" fill="#FCA311"/>
<path d="M27 2V-13H6.83954L12.6326 6.31022L27 2ZM50 42V57H65V42H50ZM39 42L24.6326 46.3102L27.8395 57H39V42ZM50 2H65V-13H50V2ZM50 27H39V57H50V27ZM53.3674 37.6898L41.3674 -2.31022L12.6326 6.31022L24.6326 46.3102L53.3674 37.6898ZM27 17H50V-13H27V17ZM35 2V42H65V2H35Z" fill="#14213D" mask="url(#path-2-inside-1_102_15)"/>
<mask id="path-4-inside-2_102_15" fill="white">
<path d="M0 2H23V42H12L0 2Z"/>
</mask>
<path d="M0 2H23V42H12L0 2Z" fill="#FCA311"/>
<path d="M0 2V-13H-20.1605L-14.3674 6.31022L0 2ZM23 42V57H38V42H23ZM12 42L-2.36739 46.3102L0.83954 57H12V42ZM23 2H38V-13H23V2ZM23 27H12V57H23V27ZM26.3674 37.6898L14.3674 -2.31022L-14.3674 6.31022L-2.36739 46.3102L26.3674 37.6898ZM0 17H23V-13H0V17ZM8 2V42H38V2H8Z" fill="#14213D" mask="url(#path-4-inside-2_102_15)"/>
<defs>
<filter id="filter0_i_102_15" x="57" y="0" width="303" height="45" filterUnits="userSpaceOnUse" color-interpolation-filters="sRGB">
<feFlood flood-opacity="0" result="BackgroundImageFix"/>
<feBlend mode="normal" in="SourceGraphic" in2="BackgroundImageFix" result="shape"/>
<feColorMatrix in="SourceAlpha" type="matrix" values="0 0 0 0 0 0 0 0 0 0 0 0 0 0 0 0 0 0 127 0" result="hardAlpha"/>
<feOffset dy="2"/>
<feGaussianBlur stdDeviation="1"/>
<feComposite in2="hardAlpha" operator="arithmetic" k2="-1" k3="1"/>
<feColorMatrix type="matrix" values="0 0 0 0 0 0 0 0 0 0 0 0 0 0 0 0 0 0 0.15 0"/>
<feBlend mode="normal" in2="shape" result="effect1_innerShadow_102_15"/>
</filter>
</defs>
</svg>
